<mxfile host="app.diagrams.net" modified="2024-04-11T21:11:07.067Z" agent="Mozilla/5.0 (Windows NT 10.0; Win64; x64; rv:94.0) Gecko/20100101 Firefox/94.0" etag="tkaPU5VOonzlqGNcIEXA" version="24.2.3" type="github">
  <diagram name="Page-1" id="zxnMH-ovP6JPlp-rO30M">
    <mxGraphModel dx="1434" dy="774" grid="1" gridSize="10" guides="1" tooltips="1" connect="1" arrows="1" fold="1" page="1" pageScale="1" pageWidth="850" pageHeight="1100" math="0" shadow="0">
      <root>
        <mxCell id="0" />
        <mxCell id="1" parent="0" />
        <mxCell id="C36BV3S7HllfPEe-F848-16" style="edgeStyle=orthogonalEdgeStyle;rounded=0;orthogonalLoop=1;jettySize=auto;html=1;exitX=0.5;exitY=1;exitDx=0;exitDy=0;entryX=0.5;entryY=0;entryDx=0;entryDy=0;" edge="1" parent="1" source="C36BV3S7HllfPEe-F848-1" target="C36BV3S7HllfPEe-F848-5">
          <mxGeometry relative="1" as="geometry">
            <Array as="points">
              <mxPoint x="400" y="230" />
              <mxPoint x="610" y="230" />
            </Array>
          </mxGeometry>
        </mxCell>
        <mxCell id="C36BV3S7HllfPEe-F848-23" style="edgeStyle=orthogonalEdgeStyle;rounded=0;orthogonalLoop=1;jettySize=auto;html=1;exitX=0.5;exitY=1;exitDx=0;exitDy=0;" edge="1" parent="1" source="C36BV3S7HllfPEe-F848-1" target="C36BV3S7HllfPEe-F848-2">
          <mxGeometry relative="1" as="geometry" />
        </mxCell>
        <mxCell id="C36BV3S7HllfPEe-F848-1" value="Main Menu" style="rounded=1;whiteSpace=wrap;html=1;" vertex="1" parent="1">
          <mxGeometry x="320" y="140" width="120" height="60" as="geometry" />
        </mxCell>
        <mxCell id="C36BV3S7HllfPEe-F848-17" style="edgeStyle=orthogonalEdgeStyle;rounded=0;orthogonalLoop=1;jettySize=auto;html=1;exitX=0.5;exitY=1;exitDx=0;exitDy=0;entryX=0.5;entryY=0;entryDx=0;entryDy=0;" edge="1" parent="1" source="C36BV3S7HllfPEe-F848-2" target="C36BV3S7HllfPEe-F848-6">
          <mxGeometry relative="1" as="geometry" />
        </mxCell>
        <mxCell id="C36BV3S7HllfPEe-F848-2" value="Classic level rules display and enter name field" style="rounded=0;whiteSpace=wrap;html=1;" vertex="1" parent="1">
          <mxGeometry x="110" y="260" width="120" height="60" as="geometry" />
        </mxCell>
        <mxCell id="C36BV3S7HllfPEe-F848-18" style="edgeStyle=orthogonalEdgeStyle;rounded=0;orthogonalLoop=1;jettySize=auto;html=1;exitX=0.5;exitY=1;exitDx=0;exitDy=0;entryX=0.5;entryY=0;entryDx=0;entryDy=0;" edge="1" parent="1" source="C36BV3S7HllfPEe-F848-3" target="C36BV3S7HllfPEe-F848-7">
          <mxGeometry relative="1" as="geometry" />
        </mxCell>
        <mxCell id="C36BV3S7HllfPEe-F848-3" value="trivia rules display and enter name field" style="rounded=0;whiteSpace=wrap;html=1;" vertex="1" parent="1">
          <mxGeometry x="250" y="260" width="120" height="60" as="geometry" />
        </mxCell>
        <mxCell id="C36BV3S7HllfPEe-F848-19" style="edgeStyle=orthogonalEdgeStyle;rounded=0;orthogonalLoop=1;jettySize=auto;html=1;exitX=0.5;exitY=1;exitDx=0;exitDy=0;entryX=0.5;entryY=0;entryDx=0;entryDy=0;" edge="1" parent="1" source="C36BV3S7HllfPEe-F848-4" target="C36BV3S7HllfPEe-F848-8">
          <mxGeometry relative="1" as="geometry" />
        </mxCell>
        <mxCell id="C36BV3S7HllfPEe-F848-4" value="Multiplayer rules display, speed (difficulty) cursor number of players and controls selection" style="rounded=0;whiteSpace=wrap;html=1;" vertex="1" parent="1">
          <mxGeometry x="390" y="260" width="120" height="60" as="geometry" />
        </mxCell>
        <mxCell id="C36BV3S7HllfPEe-F848-5" value="High scores display for classic and trivia modes" style="rounded=0;whiteSpace=wrap;html=1;" vertex="1" parent="1">
          <mxGeometry x="530" y="260" width="120" height="60" as="geometry" />
        </mxCell>
        <mxCell id="C36BV3S7HllfPEe-F848-20" style="edgeStyle=orthogonalEdgeStyle;rounded=0;orthogonalLoop=1;jettySize=auto;html=1;exitX=0.5;exitY=1;exitDx=0;exitDy=0;entryX=0.5;entryY=0;entryDx=0;entryDy=0;" edge="1" parent="1" source="C36BV3S7HllfPEe-F848-6" target="C36BV3S7HllfPEe-F848-9">
          <mxGeometry relative="1" as="geometry" />
        </mxCell>
        <mxCell id="C36BV3S7HllfPEe-F848-6" value="Classic game" style="rounded=0;whiteSpace=wrap;html=1;" vertex="1" parent="1">
          <mxGeometry x="110" y="370" width="120" height="60" as="geometry" />
        </mxCell>
        <mxCell id="C36BV3S7HllfPEe-F848-21" style="edgeStyle=orthogonalEdgeStyle;rounded=0;orthogonalLoop=1;jettySize=auto;html=1;exitX=0.5;exitY=1;exitDx=0;exitDy=0;entryX=0.5;entryY=0;entryDx=0;entryDy=0;" edge="1" parent="1" source="C36BV3S7HllfPEe-F848-7" target="C36BV3S7HllfPEe-F848-10">
          <mxGeometry relative="1" as="geometry" />
        </mxCell>
        <mxCell id="C36BV3S7HllfPEe-F848-7" value="Trivia game" style="rounded=0;whiteSpace=wrap;html=1;" vertex="1" parent="1">
          <mxGeometry x="250" y="370" width="120" height="60" as="geometry" />
        </mxCell>
        <mxCell id="C36BV3S7HllfPEe-F848-22" style="edgeStyle=orthogonalEdgeStyle;rounded=0;orthogonalLoop=1;jettySize=auto;html=1;exitX=0.5;exitY=1;exitDx=0;exitDy=0;entryX=0.5;entryY=0;entryDx=0;entryDy=0;" edge="1" parent="1" source="C36BV3S7HllfPEe-F848-8" target="C36BV3S7HllfPEe-F848-11">
          <mxGeometry relative="1" as="geometry" />
        </mxCell>
        <mxCell id="C36BV3S7HllfPEe-F848-8" value="Multiplayer game" style="rounded=0;whiteSpace=wrap;html=1;" vertex="1" parent="1">
          <mxGeometry x="390" y="370" width="120" height="60" as="geometry" />
        </mxCell>
        <mxCell id="C36BV3S7HllfPEe-F848-9" value="Score display and rank" style="rounded=0;whiteSpace=wrap;html=1;" vertex="1" parent="1">
          <mxGeometry x="110" y="490" width="120" height="60" as="geometry" />
        </mxCell>
        <mxCell id="C36BV3S7HllfPEe-F848-10" value="Score display and rank" style="rounded=0;whiteSpace=wrap;html=1;" vertex="1" parent="1">
          <mxGeometry x="250" y="490" width="120" height="60" as="geometry" />
        </mxCell>
        <mxCell id="C36BV3S7HllfPEe-F848-11" value="Rank display" style="rounded=0;whiteSpace=wrap;html=1;" vertex="1" parent="1">
          <mxGeometry x="390" y="490" width="120" height="60" as="geometry" />
        </mxCell>
        <mxCell id="C36BV3S7HllfPEe-F848-24" style="edgeStyle=orthogonalEdgeStyle;rounded=0;orthogonalLoop=1;jettySize=auto;html=1;exitX=0.5;exitY=1;exitDx=0;exitDy=0;entryX=0.608;entryY=-0.067;entryDx=0;entryDy=0;entryPerimeter=0;" edge="1" parent="1" source="C36BV3S7HllfPEe-F848-1" target="C36BV3S7HllfPEe-F848-3">
          <mxGeometry relative="1" as="geometry" />
        </mxCell>
        <mxCell id="C36BV3S7HllfPEe-F848-25" style="edgeStyle=orthogonalEdgeStyle;rounded=0;orthogonalLoop=1;jettySize=auto;html=1;exitX=0.5;exitY=1;exitDx=0;exitDy=0;entryX=0.433;entryY=-0.033;entryDx=0;entryDy=0;entryPerimeter=0;" edge="1" parent="1" source="C36BV3S7HllfPEe-F848-1" target="C36BV3S7HllfPEe-F848-4">
          <mxGeometry relative="1" as="geometry" />
        </mxCell>
      </root>
    </mxGraphModel>
  </diagram>
</mxfile>
